# xmcd
#
# Track frame offsets: 
#        150
#        15350
#        37695
#        61435
#        81677
#        100140
#        118610
#        134207
#        154442
#
# Disc length: 2399 seconds
#
# Revision: 3
# Processed by: cddbd v1.5.2PL0 Copyright (c) Steve Scherf et al.
# Submitted via: ExactAudioCopy v1.0b3
#
DISCID=77095d09
DTITLE=BOOWY - INSTANT LOVE (紙ジャケット仕様) TKCA-73288
DYEAR=1983
DGENRE=Rock
TTITLE0=INSTANT LOVE
TTITLE1=MY HONEY
TTITLE2=OH! MY JULLY Part 2 
TTITLE3=FUNNY-BOY 
TTITLE4=OH! MY JULLY Part 1 
TTITLE5=TEENAGE EMOTION
TTITLE6=LONDON GAME
TTITLE7=SYMPHONIC
TTITLE8=THIS MOMENT
EXTD=YEAR: 1983
EXTT0=
EXTT1=
EXTT2=
EXTT3=
EXTT4=
EXTT5=
EXTT6=
EXTT7=
EXTT8=
PLAYORDER=
